<svg viewBox="0 0 483 41" fill="none" xmlns="http://www.w3.org/2000/svg">
<path d="M0 6.83821C0 6.58992 0.0837964 6.39129 0.251389 6.24232C0.418982 6.09335 0.626921 6.01886 0.875207 6.01886H20.9305C21.1539 6.01886 21.3526 6.08714 21.5264 6.2237C21.7002 6.36026 21.7995 6.56509 21.8243 6.83821V11.4749C21.8243 11.6984 21.7467 11.9125 21.5915 12.1174C21.4364 12.3222 21.216 12.4246 20.9305 12.4246H14.5061V32.7965C14.5061 33.0199 14.4254 33.2217 14.264 33.4017C14.1026 33.5817 13.8916 33.6717 13.6309 33.6717H8.15618C7.94514 33.6717 7.74651 33.5879 7.5603 33.4203C7.37408 33.2527 7.28098 33.0448 7.28098 32.7965V12.4246H0.875207C0.626921 12.4246 0.418982 12.3439 0.251389 12.1826C0.0837964 12.0212 0 11.7853 0 11.4749V6.83821ZM42.7548 30.8412C41.6623 31.8468 40.4333 32.632 39.0677 33.1968C37.7022 33.7617 36.2559 34.0441 34.729 34.0441C33.0282 34.0441 31.4205 33.7337 29.906 33.113C28.3915 32.4923 27.0631 31.6326 25.921 30.534C24.7789 29.4353 23.8727 28.1411 23.2023 26.6514C22.5319 25.1617 22.1967 23.5416 22.1967 21.7912C22.1967 20.6987 22.3302 19.6404 22.5971 18.6163C22.864 17.5921 23.2426 16.6331 23.733 15.7392C24.2234 14.8454 24.8192 14.023 25.5207 13.2719C26.2221 12.5208 27.0073 11.8784 27.8763 11.3446C28.7453 10.8108 29.6888 10.3949 30.7067 10.097C31.7247 9.79901 32.7985 9.65004 33.9282 9.65004C34.9586 9.65004 35.958 9.7866 36.9263 10.0597C37.8946 10.3328 38.8039 10.7177 39.6543 11.2142C40.5047 11.7108 41.2837 12.3067 41.9913 13.0019C42.6989 13.6971 43.3072 14.4575 43.8162 15.283C44.3252 16.1086 44.7193 16.99 44.9987 17.9273C45.278 18.8645 45.4176 19.8298 45.4176 20.8229C45.4176 21.4684 45.4083 21.996 45.3897 22.4057C45.3711 22.8154 45.2749 23.1413 45.1011 23.3833C44.9273 23.6254 44.6386 23.793 44.2352 23.8861C43.8317 23.9792 43.2389 24.0258 42.4568 24.0258H29.0494C29.1736 24.8203 29.4249 25.4845 29.8036 26.0183C30.1822 26.5521 30.6198 26.9773 31.1164 27.2938C31.613 27.6104 32.1406 27.837 32.6992 27.9735C33.2579 28.1101 33.7855 28.1784 34.282 28.1784C34.7289 28.1784 35.1883 28.1318 35.66 28.0387C36.1318 27.9456 36.588 27.8214 37.0287 27.6663C37.4694 27.5111 37.8729 27.3311 38.2391 27.1262C38.6053 26.9214 38.9001 26.7073 39.1236 26.4838C39.3222 26.3224 39.4929 26.2014 39.6357 26.1207C39.7785 26.04 39.9305 25.9996 40.0919 25.9996C40.2533 25.9996 40.4178 26.0555 40.5854 26.1672C40.753 26.279 40.9423 26.4404 41.1533 26.6514L43.1272 28.886C43.2638 29.0474 43.3507 29.1932 43.3879 29.3236C43.4252 29.4539 43.4438 29.5874 43.4438 29.7239C43.4438 29.9722 43.3755 30.1864 43.2389 30.3664C43.1024 30.5464 42.941 30.7047 42.7548 30.8412ZM33.7979 15.3296C33.3137 15.3296 32.8451 15.4258 32.392 15.6182C31.9388 15.8106 31.5137 16.0682 31.1164 16.391C30.7191 16.7138 30.3622 17.08 30.0457 17.4897C29.7291 17.8993 29.4715 18.3152 29.2729 18.7373H38.7884C38.5277 18.2531 38.2453 17.8062 37.9411 17.3966C37.637 16.9869 37.2894 16.6269 36.8983 16.3165C36.5073 16.0062 36.0604 15.7641 35.5576 15.5903C35.0548 15.4165 34.4683 15.3296 33.7979 15.3296ZM64.4487 26.3907C64.6225 26.2666 64.787 26.189 64.9422 26.1579C65.0974 26.1269 65.2184 26.1114 65.3053 26.1114C65.5164 26.1114 65.7088 26.1548 65.8826 26.2417C66.0564 26.3286 66.2364 26.5148 66.4226 26.8004L68.5082 29.9474C68.5703 30.0467 68.6292 30.1584 68.6851 30.2826C68.741 30.4067 68.7689 30.506 68.7689 30.5805C68.7689 30.866 68.6789 31.0988 68.4989 31.2788C68.3189 31.4588 68.1234 31.6171 67.9123 31.7537C66.8943 32.4613 65.7802 33.0292 64.5698 33.4575C63.3594 33.8858 62.0776 34.1 60.7244 34.1C59.6072 34.1 58.5302 33.9572 57.4936 33.6717C56.457 33.3861 55.4918 32.9796 54.598 32.452C53.7042 31.9244 52.8848 31.2912 52.14 30.5526C51.3951 29.8139 50.762 28.9915 50.2406 28.0852C49.7192 27.179 49.3126 26.2014 49.0209 25.1524C48.7292 24.1034 48.5833 23.0078 48.5833 21.8657C48.5833 20.7236 48.7292 19.6249 49.0209 18.5697C49.3126 17.5145 49.7192 16.5369 50.2406 15.6368C50.762 14.7368 51.3951 13.9174 52.14 13.1788C52.8848 12.4402 53.7042 11.8101 54.598 11.2887C55.4918 10.7673 56.457 10.3639 57.4936 10.0783C58.5302 9.7928 59.6072 9.65004 60.7244 9.65004C62.0776 9.65004 63.3283 9.83005 64.4767 10.1901C65.625 10.5501 66.7019 11.0839 67.7075 11.7915L67.6516 11.7356C67.9247 11.897 68.142 12.0863 68.3034 12.3036C68.4648 12.5208 68.5454 12.7909 68.5454 13.1136C68.5454 13.3371 68.471 13.5667 68.322 13.8026L66.6647 16.6145C66.3171 17.2228 65.895 17.5269 65.3984 17.5269C65.2867 17.5269 65.1501 17.499 64.9888 17.4431C64.8274 17.3872 64.6474 17.291 64.4487 17.1545C63.9025 16.7945 63.3159 16.4996 62.689 16.27C62.0621 16.0403 61.3948 15.9255 60.6872 15.9255C59.9051 15.9255 59.1851 16.0837 58.5271 16.4003C57.8692 16.7169 57.3074 17.1483 56.8419 17.6945C56.3764 18.2407 56.0132 18.8738 55.7525 19.5939C55.4918 20.3139 55.3615 21.0712 55.3615 21.8657C55.3615 22.685 55.4918 23.4516 55.7525 24.1654C56.0132 24.8793 56.3764 25.4969 56.8419 26.0183C57.3074 26.5397 57.8692 26.9524 58.5271 27.2566C59.1851 27.5607 59.9051 27.7128 60.6872 27.7128C61.3948 27.7128 62.059 27.5887 62.6797 27.3404C63.3004 27.0921 63.8901 26.7755 64.4487 26.3907ZM79.4576 12.4991C79.6935 12.1515 79.979 11.807 80.3142 11.4656C80.6494 11.1242 81.0435 10.8201 81.4966 10.5532C81.9498 10.2863 82.465 10.069 83.0422 9.90143C83.6195 9.73384 84.2743 9.65004 85.0068 9.65004C86.422 9.65004 87.6852 9.92315 88.7962 10.4694C89.9073 11.0156 90.8508 11.7605 91.6267 12.704C92.4026 13.6474 92.9923 14.7492 93.3957 16.0093C93.7992 17.2693 94.0009 18.6132 94.0009 20.0408V32.2378C94.0009 32.7096 93.8985 33.0665 93.6937 33.3086C93.4888 33.5506 93.163 33.6717 92.716 33.6717H88.4145C87.8807 33.6717 87.5145 33.5817 87.3158 33.4017C87.1172 33.2217 87.0179 32.871 87.0179 32.3496V20.0408C87.0179 19.507 86.9155 19.0104 86.7106 18.5511C86.5058 18.0918 86.2296 17.6914 85.882 17.35C85.5344 17.0086 85.1278 16.7417 84.6623 16.5493C84.1967 16.3569 83.7033 16.2606 83.1819 16.2606C82.735 16.2606 82.2974 16.3506 81.8691 16.5307C81.4408 16.7107 81.0559 16.9652 80.7145 17.2941C80.3732 17.6231 80.0876 18.0173 79.858 18.4766C79.6283 18.9359 79.4948 19.4449 79.4576 20.0035V32.2937C79.4576 32.5047 79.4173 32.7158 79.3366 32.9268C79.2559 33.1379 79.1348 33.2992 78.9734 33.411C78.8121 33.5103 78.66 33.5786 78.5172 33.6158C78.3745 33.653 78.21 33.6717 78.0238 33.6717H73.8153C73.2815 33.6717 72.8967 33.5413 72.6608 33.2806C72.4249 33.0199 72.307 32.6723 72.307 32.2378V17.08V16.9496V11.4005V11.3073V4.3988C72.307 3.97672 72.4249 3.63532 72.6608 3.37462C72.8967 3.11392 73.2815 2.98357 73.8153 2.98357H78.0238C78.3093 2.98357 78.6258 3.08289 78.9734 3.28152C79.1348 3.39324 79.2559 3.55463 79.3366 3.76567C79.4173 3.97672 79.4576 4.17534 79.4576 4.36156V12.4991ZM102.716 24.752C102.927 24.9258 103.197 25.1586 103.526 25.4503C103.855 25.7421 104.23 26.0307 104.652 26.3162C105.286 26.7383 105.912 27.0673 106.533 27.3031C107.154 27.539 107.806 27.657 108.488 27.657C109.122 27.657 109.652 27.5856 110.081 27.4428C110.509 27.3 110.847 27.1107 111.095 26.8749C111.344 26.639 111.521 26.3659 111.626 26.0555C111.732 25.7452 111.784 25.4162 111.784 25.0686C111.784 24.6837 111.639 24.3392 111.347 24.0351C111.055 23.7309 110.698 23.4609 110.276 23.2251C109.854 22.9892 109.413 22.7875 108.954 22.6199C108.495 22.4523 108.097 22.3126 107.762 22.2009C106.272 21.6795 104.969 21.1177 103.852 20.5156C102.734 19.9135 101.803 19.2432 101.058 18.5045C100.314 17.7659 99.7549 16.9527 99.3825 16.0651C99.0101 15.1775 98.8239 14.1875 98.8239 13.095C98.8239 11.9405 99.0566 10.8915 99.5222 9.94798C99.9877 9.0045 100.652 8.19757 101.515 7.5272C102.377 6.85683 103.417 6.33853 104.634 5.97231C105.85 5.60609 107.21 5.42298 108.712 5.42298C109.842 5.42298 110.925 5.55022 111.961 5.80472C112.998 6.05921 114.019 6.46578 115.025 7.02442C115.447 7.27271 115.847 7.5303 116.226 7.79721C116.604 8.06412 116.936 8.32171 117.222 8.57C117.507 8.81828 117.734 9.05416 117.902 9.27761C118.069 9.50107 118.153 9.69349 118.153 9.85488C118.153 10.0163 118.113 10.1652 118.032 10.3018C117.951 10.4383 117.83 10.5935 117.669 10.7673L114.82 13.8026C114.609 14.0137 114.398 14.1192 114.187 14.1192C114.013 14.1192 113.854 14.0695 113.712 13.9702C113.569 13.8709 113.411 13.7468 113.237 13.5978L113.069 13.4488C112.821 13.2378 112.545 13.0205 112.241 12.7971C111.936 12.5736 111.611 12.3719 111.263 12.1919C110.915 12.0119 110.549 11.8629 110.164 11.745C109.779 11.627 109.388 11.568 108.991 11.568C108.582 11.568 108.197 11.6022 107.837 11.6705C107.477 11.7387 107.16 11.8474 106.887 11.9963C106.614 12.1453 106.397 12.3408 106.235 12.5829C106.074 12.825 105.993 13.1198 105.993 13.4674C105.993 13.815 106.08 14.1161 106.254 14.3706C106.428 14.6251 106.688 14.8609 107.036 15.0782C107.384 15.2954 107.815 15.5003 108.33 15.6927C108.845 15.8851 109.444 16.0931 110.127 16.3165C111.443 16.751 112.656 17.2072 113.768 17.6852C114.879 18.1631 115.838 18.728 116.645 19.3797C117.451 20.0315 118.082 20.8105 118.535 21.7167C118.988 22.623 119.214 23.7216 119.214 25.0127C119.214 26.3783 118.935 27.6166 118.376 28.7277C117.818 29.8388 117.051 30.7854 116.077 31.5675C115.102 32.3496 113.957 32.9547 112.641 33.383C111.325 33.8113 109.91 34.0255 108.395 34.0255C106.968 34.0255 105.565 33.771 104.187 33.262C102.809 32.753 101.524 32.0702 100.332 31.2136C99.8356 30.8536 99.4167 30.4998 99.0753 30.1522C98.7339 29.8046 98.4639 29.5253 98.2652 29.3143L98.2094 29.2584C98.197 29.2336 98.1845 29.218 98.1721 29.2118C98.1597 29.2056 98.1473 29.1963 98.1349 29.1839C98.1225 29.1591 98.1101 29.1436 98.0976 29.1374C98.0852 29.1312 98.0728 29.1218 98.0604 29.1094C97.7749 28.7991 97.6321 28.5508 97.6321 28.3646C97.6321 28.1535 97.7749 27.9177 98.0604 27.657L101.282 24.5844C101.543 24.3982 101.754 24.3051 101.915 24.3051C102.027 24.3051 102.145 24.3423 102.269 24.4168C102.393 24.4913 102.542 24.603 102.716 24.752ZM123.386 10.2459C123.547 10.1094 123.715 10.0225 123.888 9.98523C124.062 9.94798 124.23 9.92936 124.391 9.92936H127.203C127.439 9.92936 127.634 9.96661 127.789 10.0411C127.945 10.1156 128.072 10.218 128.171 10.3483C128.271 10.4787 128.354 10.6277 128.423 10.7953C128.491 10.9629 128.556 11.146 128.618 11.3446L129.4 13.5978C129.748 13.1509 130.099 12.6946 130.452 12.2291C130.806 11.7636 131.225 11.3415 131.709 10.9629C132.193 10.5842 132.771 10.2708 133.441 10.0225C134.111 9.77418 134.931 9.65004 135.899 9.65004C137.6 9.65004 139.167 9.9635 140.601 10.5904C142.035 11.2173 143.27 12.0801 144.307 13.1788C145.343 14.2775 146.153 15.5685 146.737 17.0521C147.32 18.5356 147.612 20.1401 147.612 21.8657C147.612 23.5789 147.32 25.1803 146.737 26.67C146.153 28.1597 145.343 29.4539 144.307 30.5526C143.27 31.6512 142.035 32.5171 140.601 33.1503C139.167 33.7834 137.6 34.1 135.899 34.1C135.092 34.1 134.397 34.0038 133.814 33.8113C133.23 33.6189 132.712 33.3675 132.259 33.0572C131.805 32.7468 131.405 32.4054 131.058 32.033C130.71 31.6606 130.369 31.2881 130.033 30.9157V39.5933C130.033 39.9657 129.922 40.2823 129.698 40.543C129.475 40.8037 129.127 40.934 128.655 40.934H124.391C124.242 40.934 124.081 40.903 123.907 40.8409C123.733 40.7788 123.572 40.6919 123.423 40.5802C123.274 40.4685 123.15 40.3288 123.05 40.1612C122.951 39.9936 122.901 39.8043 122.901 39.5933V11.3073C122.901 11.0591 122.948 10.8542 123.041 10.6928C123.134 10.5315 123.249 10.3825 123.386 10.2459ZM140.778 21.8657C140.778 21.0712 140.648 20.317 140.387 19.6032C140.126 18.8894 139.76 18.2656 139.288 17.7317C138.816 17.1979 138.252 16.7758 137.594 16.4655C136.936 16.1551 136.209 15.9999 135.415 15.9999C134.633 15.9999 133.891 16.1458 133.19 16.4375C132.488 16.7293 131.874 17.1265 131.346 17.6293C130.819 18.1321 130.39 18.7249 130.061 19.4077C129.732 20.0905 129.549 20.8167 129.512 21.5864V21.8657C129.512 22.685 129.667 23.4547 129.977 24.1747C130.288 24.8948 130.71 25.5186 131.244 26.0462C131.778 26.5738 132.404 26.9928 133.125 27.3031C133.845 27.6135 134.608 27.7687 135.415 27.7687C136.209 27.7687 136.936 27.6135 137.594 27.3031C138.252 26.9928 138.816 26.5738 139.288 26.0462C139.76 25.5186 140.126 24.8948 140.387 24.1747C140.648 23.4547 140.778 22.685 140.778 21.8657ZM151.336 11.4005C151.336 11.1894 151.383 10.9877 151.476 10.7953C151.569 10.6028 151.684 10.4508 151.82 10.339C152.143 10.128 152.478 10.0225 152.826 10.0225H155.638C155.874 10.0225 156.06 10.0659 156.196 10.1528C156.333 10.2397 156.448 10.3514 156.541 10.488C156.634 10.6246 156.715 10.7797 156.783 10.9535C156.851 11.1273 156.935 11.3011 157.034 11.4749C157.059 11.5246 157.109 11.6456 157.183 11.8381C157.258 12.0305 157.339 12.2415 157.425 12.4712C157.512 12.7008 157.596 12.9181 157.677 13.1229C157.758 13.3278 157.81 13.4612 157.835 13.5233C158.208 13.1136 158.564 12.6822 158.906 12.2291C159.247 11.776 159.61 11.357 159.995 10.9722C160.38 10.5873 160.808 10.2708 161.28 10.0225C161.752 9.77418 162.31 9.65004 162.956 9.65004C163.626 9.65004 164.225 9.6997 164.753 9.79901C165.281 9.89833 165.78 10.0442 166.252 10.2366C166.724 10.429 167.192 10.6742 167.658 10.9722C168.123 11.2701 168.629 11.6177 169.176 12.015C170.032 12.4743 170.194 13.1571 169.66 14.0633L167.965 16.9496C167.717 17.3221 167.413 17.5517 167.053 17.6386C166.693 17.7255 166.302 17.6697 165.88 17.471C165.346 16.9496 164.803 16.5617 164.25 16.3072C163.698 16.0527 163.068 15.9255 162.36 15.9255C161.876 15.9255 161.451 15.9937 161.085 16.1303C160.718 16.2669 160.386 16.4593 160.088 16.7076C159.79 16.9558 159.511 17.2538 159.25 17.6014C158.99 17.949 158.729 18.3338 158.468 18.7559V32.2378C158.468 32.7096 158.353 33.0665 158.124 33.3086C157.894 33.5506 157.512 33.6717 156.979 33.6717H152.789C151.82 33.6717 151.336 33.1937 151.336 32.2378V11.4005ZM172.751 11.4749C172.751 11.0777 172.863 10.7363 173.086 10.4508C173.31 10.1652 173.657 10.0225 174.129 10.0225H178.393C178.542 10.0225 178.704 10.0566 178.877 10.1249C179.051 10.1932 179.213 10.2925 179.362 10.4228C179.51 10.5532 179.638 10.7053 179.743 10.8791C179.849 11.0529 179.902 11.2515 179.902 11.4749V32.2378C179.902 32.7096 179.771 33.0665 179.51 33.3086C179.25 33.5506 178.877 33.6717 178.393 33.6717H174.129C173.21 33.6717 172.751 33.1937 172.751 32.2378V11.4749ZM172.751 2.0525C172.751 1.5311 172.863 1.16178 173.086 0.944527C173.31 0.727277 173.657 0.618652 174.129 0.618652H178.449C178.884 0.618652 179.234 0.727277 179.501 0.944527C179.768 1.16178 179.902 1.5311 179.902 2.0525V5.68368C179.902 5.83265 179.867 5.99404 179.799 6.16784C179.731 6.34164 179.635 6.50923 179.51 6.67061C179.386 6.832 179.234 6.96545 179.054 7.07097C178.874 7.1765 178.673 7.22926 178.449 7.22926H174.129C173.21 7.22926 172.751 6.71406 172.751 5.68368V2.0525ZM184.855 10.339C185.016 10.2025 185.187 10.1156 185.367 10.0783C185.547 10.0411 185.718 10.0225 185.879 10.0225H188.691C188.914 10.0225 189.107 10.0628 189.268 10.1435C189.429 10.2242 189.566 10.3328 189.678 10.4694C189.79 10.6059 189.88 10.7611 189.948 10.9349C190.016 11.1087 190.081 11.2887 190.143 11.4749L190.721 13.8585C190.907 13.4736 191.177 13.036 191.531 12.5457C191.884 12.0553 192.334 11.596 192.881 11.1677C193.427 10.7394 194.076 10.3794 194.827 10.0876C195.578 9.79591 196.45 9.65004 197.443 9.65004C198.858 9.65004 200.143 9.92315 201.298 10.4694C202.452 11.0156 203.436 11.7605 204.249 12.704C205.062 13.6474 205.692 14.7492 206.139 16.0093C206.586 17.2693 206.809 18.6132 206.809 20.0408V32.2378C206.809 32.7096 206.707 33.0665 206.502 33.3086C206.297 33.5506 205.972 33.6717 205.525 33.6717H201.223C200.689 33.6717 200.323 33.5817 200.124 33.4017C199.926 33.2217 199.826 32.871 199.826 32.3496V20.227C199.826 19.6932 199.705 19.1873 199.463 18.7094C199.221 18.2314 198.902 17.8093 198.504 17.4431C198.107 17.0769 197.657 16.7883 197.154 16.5772C196.652 16.3662 196.139 16.2606 195.618 16.2606C195.171 16.2606 194.715 16.36 194.249 16.5586C193.784 16.7572 193.356 17.0334 192.964 17.3872C192.573 17.741 192.244 18.1569 191.978 18.6349C191.711 19.1128 191.559 19.6311 191.521 20.1898V32.2937C191.521 32.5047 191.481 32.7158 191.4 32.9268C191.32 33.1379 191.199 33.2992 191.037 33.411C190.876 33.5103 190.724 33.5786 190.581 33.6158C190.438 33.653 190.274 33.6717 190.087 33.6717H185.879C185.345 33.6717 184.96 33.5413 184.724 33.2806C184.489 33.0199 184.371 32.6723 184.371 32.2378V11.4005C184.371 11.1646 184.423 10.9473 184.529 10.7487C184.634 10.5501 184.78 10.3949 184.967 10.2832L184.855 10.339ZM212.712 6.33543C212.712 5.95059 212.84 5.66195 213.094 5.46953C213.349 5.27711 213.712 5.094 214.184 4.9202L218.411 3.44911C218.473 3.43669 218.532 3.43049 218.588 3.43049H218.746C219.205 3.43049 219.512 3.56394 219.668 3.83085C219.823 4.09775 219.9 4.44846 219.9 4.88296L219.882 10.7487H222.992C223.389 10.7487 223.712 10.8666 223.96 11.1025C224.208 11.3384 224.332 11.6922 224.332 12.1639V15.7579C224.332 16.2793 224.208 16.661 223.96 16.9031C223.712 17.1452 223.389 17.2662 222.992 17.2662H219.882L219.9 32.2378C219.9 32.7096 219.764 33.0665 219.491 33.3086C219.218 33.5506 218.839 33.6717 218.355 33.6717H214.146C213.19 33.6717 212.712 33.1937 212.712 32.2378L212.694 17.2662H211.334C210.379 17.2662 209.901 16.7634 209.901 15.7579V12.1639C209.901 11.2204 210.379 10.7487 211.334 10.7487H212.694L212.712 6.33543ZM239.788 6.83821C239.788 6.61475 239.856 6.42233 239.993 6.26094C240.129 6.09956 240.334 6.01886 240.607 6.01886H246.082C246.268 6.01886 246.467 6.09335 246.678 6.24232C246.889 6.39129 246.995 6.58992 246.995 6.83821V32.8523C246.995 33.3986 246.69 33.6717 246.082 33.6717H240.607C240.061 33.6717 239.788 33.3986 239.788 32.8523V6.83821ZM252.711 10.339C252.873 10.2025 253.043 10.1156 253.223 10.0783C253.403 10.0411 253.574 10.0225 253.735 10.0225H256.547C256.771 10.0225 256.963 10.0628 257.125 10.1435C257.286 10.2242 257.423 10.3328 257.534 10.4694C257.646 10.6059 257.736 10.7611 257.804 10.9349C257.872 11.1087 257.938 11.2887 258 11.4749L258.577 13.8585C258.763 13.4736 259.033 13.036 259.387 12.5457C259.741 12.0553 260.191 11.596 260.737 11.1677C261.283 10.7394 261.932 10.3794 262.683 10.0876C263.434 9.79591 264.306 9.65004 265.299 9.65004C266.715 9.65004 267.999 9.92315 269.154 10.4694C270.309 11.0156 271.292 11.7605 272.105 12.704C272.919 13.6474 273.549 14.7492 273.996 16.0093C274.442 17.2693 274.666 18.6132 274.666 20.0408V32.2378C274.666 32.7096 274.564 33.0665 274.359 33.3086C274.154 33.5506 273.828 33.6717 273.381 33.6717H269.08C268.546 33.6717 268.179 33.5817 267.981 33.4017C267.782 33.2217 267.683 32.871 267.683 32.3496V20.227C267.683 19.6932 267.562 19.1873 267.32 18.7094C267.078 18.2314 266.758 17.8093 266.361 17.4431C265.964 17.0769 265.514 16.7883 265.011 16.5772C264.508 16.3662 263.996 16.2606 263.474 16.2606C263.028 16.2606 262.571 16.36 262.106 16.5586C261.64 16.7572 261.212 17.0334 260.821 17.3872C260.43 17.741 260.101 18.1569 259.834 18.6349C259.567 19.1128 259.415 19.6311 259.378 20.1898V32.2937C259.378 32.5047 259.337 32.7158 259.257 32.9268C259.176 33.1379 259.055 33.2992 258.894 33.411C258.732 33.5103 258.58 33.5786 258.437 33.6158C258.295 33.653 258.13 33.6717 257.944 33.6717H253.735C253.202 33.6717 252.817 33.5413 252.581 33.2806C252.345 33.0199 252.227 32.6723 252.227 32.2378V11.4005C252.227 11.1646 252.28 10.9473 252.385 10.7487C252.491 10.5501 252.637 10.3949 252.823 10.2832L252.711 10.339ZM279.619 10.339C279.781 10.2025 279.951 10.1156 280.131 10.0783C280.311 10.0411 280.482 10.0225 280.643 10.0225H283.455C283.679 10.0225 283.871 10.0628 284.033 10.1435C284.194 10.2242 284.33 10.3328 284.442 10.4694C284.554 10.6059 284.644 10.7611 284.712 10.9349C284.78 11.1087 284.846 11.2887 284.908 11.4749L285.485 13.8585C285.671 13.4736 285.941 13.036 286.295 12.5457C286.649 12.0553 287.099 11.596 287.645 11.1677C288.191 10.7394 288.84 10.3794 289.591 10.0876C290.342 9.79591 291.214 9.65004 292.207 9.65004C293.623 9.65004 294.907 9.92315 296.062 10.4694C297.216 11.0156 298.2 11.7605 299.013 12.704C299.827 13.6474 300.457 14.7492 300.904 16.0093C301.35 17.2693 301.574 18.6132 301.574 20.0408V32.2378C301.574 32.7096 301.471 33.0665 301.267 33.3086C301.062 33.5506 300.736 33.6717 300.289 33.6717H295.987C295.454 33.6717 295.087 33.5817 294.889 33.4017C294.69 33.2217 294.591 32.871 294.591 32.3496V20.227C294.591 19.6932 294.47 19.1873 294.228 18.7094C293.986 18.2314 293.666 17.8093 293.269 17.4431C292.871 17.0769 292.421 16.7883 291.919 16.5772C291.416 16.3662 290.904 16.2606 290.382 16.2606C289.936 16.2606 289.479 16.36 289.014 16.5586C288.548 16.7572 288.12 17.0334 287.729 17.3872C287.338 17.741 287.009 18.1569 286.742 18.6349C286.475 19.1128 286.323 19.6311 286.286 20.1898V32.2937C286.286 32.5047 286.245 32.7158 286.165 32.9268C286.084 33.1379 285.963 33.2992 285.802 33.411C285.64 33.5103 285.488 33.5786 285.345 33.6158C285.203 33.653 285.038 33.6717 284.852 33.6717H280.643C280.11 33.6717 279.725 33.5413 279.489 33.2806C279.253 33.0199 279.135 32.6723 279.135 32.2378V11.4005C279.135 11.1646 279.188 10.9473 279.293 10.7487C279.399 10.5501 279.545 10.3949 279.731 10.2832L279.619 10.339ZM304.944 21.8657C304.944 20.7236 305.09 19.6249 305.382 18.5697C305.674 17.5145 306.083 16.5369 306.611 15.6368C307.139 14.7368 307.772 13.9174 308.51 13.1788C309.249 12.4402 310.071 11.8101 310.978 11.2887C311.884 10.7673 312.862 10.3639 313.911 10.0783C314.96 9.7928 316.055 9.65004 317.197 9.65004C318.886 9.65004 320.472 9.9635 321.955 10.5904C323.439 11.2173 324.73 12.0801 325.828 13.1788C326.927 14.2775 327.796 15.5685 328.435 17.0521C329.075 18.5356 329.394 20.1401 329.394 21.8657C329.394 23.0078 329.248 24.1034 328.957 25.1524C328.665 26.2014 328.255 27.179 327.728 28.0852C327.2 28.9915 326.567 29.8139 325.828 30.5526C325.09 31.2912 324.267 31.9244 323.361 32.452C322.455 32.9796 321.483 33.3861 320.447 33.6717C319.41 33.9572 318.327 34.1 317.197 34.1C316.055 34.1 314.96 33.9572 313.911 33.6717C312.862 33.3861 311.884 32.9796 310.978 32.452C310.071 31.9244 309.249 31.2912 308.51 30.5526C307.772 29.8139 307.139 28.9915 306.611 28.0852C306.083 27.179 305.674 26.2014 305.382 25.1524C305.09 24.1034 304.944 23.0078 304.944 21.8657ZM311.741 21.8657C311.741 22.685 311.868 23.4516 312.123 24.1654C312.377 24.8793 312.737 25.4969 313.203 26.0183C313.668 26.5397 314.233 26.9524 314.898 27.2566C315.562 27.5607 316.31 27.7128 317.141 27.7128C317.948 27.7128 318.678 27.5607 319.329 27.2566C319.981 26.9524 320.534 26.5397 320.987 26.0183C321.44 25.4969 321.787 24.8793 322.03 24.1654C322.272 23.4516 322.393 22.685 322.393 21.8657C322.393 21.0712 322.272 20.3139 322.03 19.5939C321.787 18.8738 321.44 18.2407 320.987 17.6945C320.534 17.1483 319.981 16.7169 319.329 16.4003C318.678 16.0837 317.948 15.9255 317.141 15.9255C316.31 15.9255 315.562 16.0837 314.898 16.4003C314.233 16.7169 313.668 17.1483 313.203 17.6945C312.737 18.2407 312.377 18.8738 312.123 19.5939C311.868 20.3139 311.741 21.0712 311.741 21.8657ZM330.214 11.866C329.965 11.357 329.919 10.9225 330.074 10.5625C330.229 10.2025 330.598 10.0225 331.182 10.0225H335.949C336.272 10.0225 336.554 10.1094 336.796 10.2832C337.038 10.457 337.209 10.7053 337.308 11.028C337.519 11.686 337.752 12.4246 338.007 13.244C338.261 14.0633 338.528 14.9044 338.807 15.7672C339.087 16.63 339.363 17.4866 339.636 18.3369C339.909 19.1873 340.161 19.9694 340.39 20.6832C340.62 21.3971 340.825 22.0178 341.005 22.5454C341.185 23.073 341.318 23.4485 341.405 23.672L345.353 11.028C345.514 10.6308 345.697 10.3639 345.902 10.2273C346.107 10.0907 346.396 10.0225 346.768 10.0225H351.665C352.026 10.0225 352.299 10.0659 352.485 10.1528C352.671 10.2397 352.795 10.3577 352.857 10.5066C352.919 10.6556 352.932 10.8263 352.895 11.0187C352.857 11.2111 352.795 11.4129 352.708 11.6239L343.845 32.8709C343.708 33.0944 343.547 33.2837 343.36 33.4389C343.174 33.5941 342.895 33.6717 342.522 33.6717H340.306C339.81 33.6717 339.459 33.6003 339.254 33.4575C339.049 33.3148 338.897 33.1192 338.798 32.8709L330.214 11.866ZM378.573 32.2937C378.573 32.5047 378.536 32.7065 378.462 32.8989C378.387 33.0913 378.263 33.2434 378.089 33.3551C377.953 33.4917 377.791 33.5786 377.605 33.6158C377.419 33.653 377.258 33.6717 377.121 33.6717H373.453C373.192 33.6717 372.981 33.6375 372.819 33.5693C372.658 33.501 372.528 33.4048 372.428 33.2806C372.329 33.1565 372.245 33.0044 372.177 32.8244C372.109 32.6444 372.037 32.4489 371.963 32.2378L371.423 30.8412C371.088 31.1764 370.721 31.5333 370.324 31.9119C369.927 32.2906 369.489 32.6413 369.011 32.9641C368.533 33.2868 368.015 33.5568 367.456 33.7741C366.898 33.9913 366.302 34.1 365.669 34.1C364.539 34.1 363.456 33.9572 362.419 33.6717C361.383 33.3861 360.414 32.9796 359.514 32.452C358.614 31.9244 357.798 31.2912 357.066 30.5526C356.333 29.8139 355.703 28.9915 355.176 28.0852C354.648 27.179 354.241 26.2014 353.956 25.1524C353.67 24.1034 353.528 23.0078 353.528 21.8657C353.528 20.1401 353.844 18.5356 354.477 17.0521C355.11 15.5685 355.973 14.2775 357.066 13.1788C358.158 12.0801 359.443 11.2173 360.92 10.5904C362.398 9.9635 363.98 9.65004 365.669 9.65004C366.439 9.65004 367.146 9.76487 367.792 9.99454C368.437 10.2242 369.024 10.5252 369.551 10.8977C370.079 11.2701 370.557 11.6922 370.985 12.1639C371.414 12.6357 371.795 13.1136 372.13 13.5978L372.857 11.3446C372.981 11.0342 373.083 10.7828 373.164 10.5904C373.245 10.398 373.332 10.2552 373.425 10.1621C373.518 10.069 373.633 10.007 373.769 9.97592C373.906 9.94488 374.098 9.92936 374.346 9.92936H377.121C377.258 9.92936 377.419 9.94798 377.605 9.98523C377.791 10.0225 377.953 10.1094 378.089 10.2459C378.263 10.3825 378.387 10.5377 378.462 10.7115C378.536 10.8853 378.573 11.0839 378.573 11.3073V32.2937ZM360.231 21.8657C360.231 22.685 360.359 23.4516 360.613 24.1654C360.868 24.8793 361.231 25.4969 361.702 26.0183C362.174 26.5397 362.742 26.9524 363.406 27.2566C364.07 27.5607 364.806 27.7128 365.613 27.7128C366.445 27.7128 367.217 27.5607 367.931 27.2566C368.645 26.9524 369.266 26.5397 369.793 26.0183C370.321 25.4969 370.734 24.8793 371.032 24.1654C371.33 23.4516 371.479 22.685 371.479 21.8657C371.479 21.0712 371.33 20.3139 371.032 19.5939C370.734 18.8738 370.321 18.2407 369.793 17.6945C369.266 17.1483 368.645 16.7169 367.931 16.4003C367.217 16.0837 366.445 15.9255 365.613 15.9255C364.806 15.9255 364.07 16.0837 363.406 16.4003C362.742 16.7169 362.174 17.1483 361.702 17.6945C361.231 18.2407 360.868 18.8738 360.613 19.5939C360.359 20.3139 360.231 21.0712 360.231 21.8657ZM384.476 6.33543C384.476 5.95059 384.604 5.66195 384.858 5.46953C385.113 5.27711 385.476 5.094 385.948 4.9202L390.175 3.44911C390.237 3.43669 390.296 3.43049 390.352 3.43049H390.51C390.969 3.43049 391.276 3.56394 391.432 3.83085C391.587 4.09775 391.664 4.44846 391.664 4.88296L391.646 10.7487H394.755C395.153 10.7487 395.475 10.8666 395.724 11.1025C395.972 11.3384 396.096 11.6922 396.096 12.1639V15.7579C396.096 16.2793 395.972 16.661 395.724 16.9031C395.475 17.1452 395.153 17.2662 394.755 17.2662H391.646L391.664 32.2378C391.664 32.7096 391.528 33.0665 391.255 33.3086C390.982 33.5506 390.603 33.6717 390.119 33.6717H385.91C384.954 33.6717 384.476 33.1937 384.476 32.2378L384.458 17.2662H383.098C382.143 17.2662 381.665 16.7634 381.665 15.7579V12.1639C381.665 11.2204 382.143 10.7487 383.098 10.7487H384.458L384.476 6.33543ZM399.02 11.4749C399.02 11.0777 399.132 10.7363 399.355 10.4508C399.578 10.1652 399.926 10.0225 400.398 10.0225H404.662C404.811 10.0225 404.972 10.0566 405.146 10.1249C405.32 10.1932 405.481 10.2925 405.63 10.4228C405.779 10.5532 405.907 10.7053 406.012 10.8791C406.118 11.0529 406.17 11.2515 406.17 11.4749V32.2378C406.17 32.7096 406.04 33.0665 405.779 33.3086C405.519 33.5506 405.146 33.6717 404.662 33.6717H400.398C399.479 33.6717 399.02 33.1937 399.02 32.2378V11.4749ZM399.02 2.0525C399.02 1.5311 399.132 1.16178 399.355 0.944527C399.578 0.727277 399.926 0.618652 400.398 0.618652H404.718C405.152 0.618652 405.503 0.727277 405.77 0.944527C406.037 1.16178 406.17 1.5311 406.17 2.0525V5.68368C406.17 5.83265 406.136 5.99404 406.068 6.16784C406 6.34164 405.904 6.50923 405.779 6.67061C405.655 6.832 405.503 6.96545 405.323 7.07097C405.143 7.1765 404.941 7.22926 404.718 7.22926H400.398C399.479 7.22926 399.02 6.71406 399.02 5.68368V2.0525ZM409.913 21.8657C409.913 20.7236 410.059 19.6249 410.351 18.5697C410.643 17.5145 411.052 16.5369 411.58 15.6368C412.108 14.7368 412.741 13.9174 413.479 13.1788C414.218 12.4402 415.04 11.8101 415.947 11.2887C416.853 10.7673 417.831 10.3639 418.88 10.0783C419.929 9.7928 421.024 9.65004 422.166 9.65004C423.855 9.65004 425.44 9.9635 426.924 10.5904C428.407 11.2173 429.699 12.0801 430.797 13.1788C431.896 14.2775 432.765 15.5685 433.404 17.0521C434.044 18.5356 434.363 20.1401 434.363 21.8657C434.363 23.0078 434.217 24.1034 433.926 25.1524C433.634 26.2014 433.224 27.179 432.697 28.0852C432.169 28.9915 431.536 29.8139 430.797 30.5526C430.059 31.2912 429.236 31.9244 428.33 32.452C427.424 32.9796 426.452 33.3861 425.416 33.6717C424.379 33.9572 423.296 34.1 422.166 34.1C421.024 34.1 419.929 33.9572 418.88 33.6717C417.831 33.3861 416.853 32.9796 415.947 32.452C415.04 31.9244 414.218 31.2912 413.479 30.5526C412.741 29.8139 412.108 28.9915 411.58 28.0852C411.052 27.179 410.643 26.2014 410.351 25.1524C410.059 24.1034 409.913 23.0078 409.913 21.8657ZM416.71 21.8657C416.71 22.685 416.837 23.4516 417.092 24.1654C417.346 24.8793 417.706 25.4969 418.172 26.0183C418.637 26.5397 419.202 26.9524 419.866 27.2566C420.531 27.5607 421.279 27.7128 422.11 27.7128C422.917 27.7128 423.647 27.5607 424.298 27.2566C424.95 26.9524 425.503 26.5397 425.956 26.0183C426.409 25.4969 426.756 24.8793 426.998 24.1654C427.241 23.4516 427.362 22.685 427.362 21.8657C427.362 21.0712 427.241 20.3139 426.998 19.5939C426.756 18.8738 426.409 18.2407 425.956 17.6945C425.503 17.1483 424.95 16.7169 424.298 16.4003C423.647 16.0837 422.917 15.9255 422.11 15.9255C421.279 15.9255 420.531 16.0837 419.866 16.4003C419.202 16.7169 418.637 17.1483 418.172 17.6945C417.706 18.2407 417.346 18.8738 417.092 19.5939C416.837 20.3139 416.71 21.0712 416.71 21.8657ZM438.553 10.339C438.714 10.2025 438.885 10.1156 439.065 10.0783C439.245 10.0411 439.416 10.0225 439.577 10.0225H442.389C442.613 10.0225 442.805 10.0628 442.966 10.1435C443.128 10.2242 443.264 10.3328 443.376 10.4694C443.488 10.6059 443.578 10.7611 443.646 10.9349C443.714 11.1087 443.779 11.2887 443.842 11.4749L444.419 13.8585C444.605 13.4736 444.875 13.036 445.229 12.5457C445.583 12.0553 446.033 11.596 446.579 11.1677C447.125 10.7394 447.774 10.3794 448.525 10.0876C449.276 9.79591 450.148 9.65004 451.141 9.65004C452.556 9.65004 453.841 9.92315 454.996 10.4694C456.15 11.0156 457.134 11.7605 457.947 12.704C458.76 13.6474 459.39 14.7492 459.837 16.0093C460.284 17.2693 460.508 18.6132 460.508 20.0408V32.2378C460.508 32.7096 460.405 33.0665 460.2 33.3086C459.996 33.5506 459.67 33.6717 459.223 33.6717H454.921C454.387 33.6717 454.021 33.5817 453.823 33.4017C453.624 33.2217 453.525 32.871 453.525 32.3496V20.227C453.525 19.6932 453.404 19.1873 453.162 18.7094C452.919 18.2314 452.6 17.8093 452.203 17.4431C451.805 17.0769 451.355 16.7883 450.852 16.5772C450.35 16.3662 449.838 16.2606 449.316 16.2606C448.869 16.2606 448.413 16.36 447.948 16.5586C447.482 16.7572 447.054 17.0334 446.663 17.3872C446.272 17.741 445.943 18.1569 445.676 18.6349C445.409 19.1128 445.257 19.6311 445.22 20.1898V32.2937C445.22 32.5047 445.179 32.7158 445.098 32.9268C445.018 33.1379 444.897 33.2992 444.735 33.411C444.574 33.5103 444.422 33.5786 444.279 33.6158C444.136 33.653 443.972 33.6717 443.786 33.6717H439.577C439.043 33.6717 438.659 33.5413 438.423 33.2806C438.187 33.0199 438.069 32.6723 438.069 32.2378V11.4005C438.069 11.1646 438.122 10.9473 438.227 10.7487C438.333 10.5501 438.479 10.3949 438.665 10.2832L438.553 10.339ZM468.515 26.3162C468.85 26.6514 469.213 26.9338 469.604 27.1635C469.995 27.3931 470.371 27.5794 470.731 27.7221C471.091 27.8649 471.407 27.9673 471.681 28.0294C471.954 28.0915 472.14 28.1225 472.239 28.1225C472.475 28.1225 472.776 28.1132 473.142 28.0946C473.509 28.0759 473.859 28.0201 474.194 27.927C474.53 27.8339 474.818 27.6818 475.06 27.4707C475.302 27.2597 475.423 26.9618 475.423 26.5769C475.423 26.2293 475.355 25.9531 475.219 25.7483C475.082 25.5434 474.883 25.3696 474.623 25.2269C474.362 25.0841 474.042 24.9568 473.664 24.8451C473.285 24.7334 472.86 24.603 472.388 24.4541C470.898 24.0568 469.669 23.5789 468.701 23.0202C467.733 22.4616 466.966 21.8378 466.401 21.1488C465.837 20.4598 465.442 19.718 465.219 18.9235C464.995 18.129 464.884 17.291 464.884 16.4096C464.884 15.3792 465.089 14.442 465.498 13.5978C465.908 12.7536 466.491 12.0305 467.249 11.4284C468.006 10.8263 468.912 10.3608 469.967 10.0318C471.023 9.7028 472.196 9.53831 473.487 9.53831C474.269 9.53831 475.001 9.60349 475.684 9.73384C476.367 9.86419 477.019 10.069 477.639 10.3483C478.26 10.6277 478.865 10.9877 479.455 11.4284C480.045 11.8691 480.631 12.3936 481.215 13.0019C481.426 13.2502 481.534 13.4829 481.541 13.7002C481.547 13.9174 481.407 14.1502 481.122 14.3985C480.638 14.7958 480.175 15.1868 479.734 15.5717C479.294 15.9565 478.837 16.3848 478.366 16.8565C478.217 16.9807 478.068 17.0583 477.919 17.0893C477.77 17.1203 477.627 17.1172 477.49 17.08C477.354 17.0427 477.224 16.9807 477.099 16.8938C476.975 16.8069 476.864 16.7014 476.764 16.5772C476.33 16.0931 475.833 15.7672 475.274 15.5996C474.716 15.432 474.194 15.3482 473.71 15.3482C473.102 15.3482 472.618 15.4537 472.258 15.6648C471.898 15.8758 471.73 16.1986 471.755 16.6331C471.78 16.9558 471.901 17.2072 472.118 17.3872C472.335 17.5672 472.602 17.7131 472.919 17.8248C473.235 17.9366 473.571 18.0266 473.924 18.0949C474.278 18.1631 474.604 18.2407 474.902 18.3276C476.019 18.6876 477.044 19.0787 477.975 19.5008C478.906 19.9229 479.713 20.4412 480.395 21.0557C481.078 21.6702 481.609 22.4057 481.988 23.2623C482.366 24.1189 482.556 25.1617 482.556 26.3907C482.556 27.6197 482.31 28.7184 481.82 29.6867C481.33 30.655 480.656 31.4681 479.799 32.1261C478.943 32.784 477.928 33.2868 476.755 33.6344C475.582 33.982 474.319 34.1558 472.965 34.1558C472.196 34.1558 471.414 34.0876 470.619 33.951C469.825 33.8144 469.055 33.5941 468.31 33.2899C467.565 32.9858 466.858 32.5947 466.187 32.1168C465.517 31.6388 464.921 31.0585 464.4 30.3757C464.263 30.2019 464.161 30.0188 464.092 29.8263C464.024 29.6339 463.993 29.4446 463.999 29.2584C464.005 29.0722 464.043 28.9015 464.111 28.7463C464.179 28.5911 464.288 28.4577 464.437 28.3459L466.839 25.9438C467.137 25.6955 467.401 25.6086 467.63 25.6831C467.86 25.7576 468.155 25.9686 468.515 26.3162Z" fill="#F6F6F6"/>
</svg>