<svg  viewBox="0 0 213 1024" fill="none" xmlns="http://www.w3.org/2000/svg">
<path fill-rule="evenodd" clip-rule="evenodd" d="M0.858398 1046.36L42.4882 996.05C84.1179 945.742 167.377 845.124 196.638 744.906C225.899 644.687 201.162 544.867 182.424 445.002C163.686 345.138 150.949 245.229 168.21 145.099C185.471 44.969 232.732 -55.3826 256.362 -105.558L279.992 -155.734L315.991 -156L316.36 -106.001C316.729 -56.0027 317.468 43.9946 318.206 143.992C318.944 243.989 319.682 343.986 320.42 443.984C321.159 543.981 321.897 643.978 322.635 743.976C323.373 843.973 324.111 943.97 324.48 993.969L324.85 1043.97L0.858398 1046.36Z" fill="#0C6DCB"/>
<path fill-rule="evenodd" clip-rule="evenodd" d="M27.8584 1024.36L69.4882 974.05C111.118 923.742 194.377 823.124 223.638 722.906C252.899 622.687 228.162 522.867 209.424 423.002C190.686 323.138 177.949 223.229 195.21 123.099C212.471 22.969 259.732 -77.3826 283.362 -127.558L306.992 -177.734L342.991 -178L343.36 -128.001C343.729 -78.0027 344.468 21.9946 345.206 121.992C345.944 221.989 346.682 321.986 347.42 421.984C348.159 521.981 348.897 621.978 349.635 721.976C350.373 821.973 351.111 921.97 351.48 971.969L351.85 1021.97L27.8584 1024.36Z" fill="#1042DE"/>
<path fill-rule="evenodd" clip-rule="evenodd" d="M46.8584 1024.36L88.4882 974.05C130.118 923.742 213.377 823.124 242.638 722.906C271.899 622.687 247.162 522.867 228.424 423.002C209.686 323.138 196.949 223.229 214.21 123.099C231.471 22.969 278.732 -77.3826 302.362 -127.558L325.992 -177.734L361.991 -178L362.36 -128.001C362.729 -78.0027 363.468 21.9946 364.206 121.992C364.944 221.989 365.682 321.986 366.42 421.984C367.159 521.981 367.897 621.978 368.635 721.976C369.373 821.973 370.111 921.97 370.48 971.969L370.85 1021.97L46.8584 1024.36Z" fill="#002DBA"/>
</svg>
